<svg width="32" height="32" viewBox="0 0 32 32" fill="none" xmlns="http://www.w3.org/2000/svg">
<path d="M16 0C7.16154 0 0 7.16154 0 16C0 24.8231 7.17692 32 16 32C24.8385 32 32 24.8385 32 16C32 7.17692 24.8231 0 16 0ZM25.7923 6.20769C26.4462 6.86154 27.0308 7.56923 27.5308 8.32308C27.5846 8.4 27.6 8.50769 27.5615 8.59231L26.4538 11.7692C26.4231 11.8462 26.3692 11.9154 26.2923 11.9462L21.8692 13.9615C21.7615 14.0077 21.6385 13.9923 21.5462 13.9154L17.1923 10.2538C17.1583 10.2241 17.1311 10.1874 17.1126 10.1463C17.094 10.1052 17.0845 10.0605 17.0846 10.0154V5.16154C17.0846 5.06154 17.1385 4.96154 17.2231 4.90769L20.1769 2.9C20.2538 2.84615 20.3538 2.83077 20.4462 2.86154C22.4308 3.54615 24.2615 4.67692 25.7923 6.20769ZM20.1077 29.1C20.0769 29.1923 20 29.2615 19.9077 29.2846C18.6538 29.6538 17.3385 29.8385 16 29.8385C14.6538 29.8385 13.3462 29.6462 12.0923 29.2846C12 29.2538 11.9231 29.1846 11.8923 29.1L10.6308 25.7923C10.6 25.7077 10.6077 25.6154 10.6462 25.5385L12.3615 22.2846C12.4154 22.1846 12.5231 22.1231 12.6308 22.1231H19.3615C19.4769 22.1231 19.5769 22.1846 19.6308 22.2846L21.3462 25.5385C21.3846 25.6154 21.3923 25.7077 21.3615 25.7923L20.1077 29.1ZM14.9231 5.17692V10.0308C14.9231 10.1231 14.8846 10.2077 14.8154 10.2692L10.4538 13.9231C10.3615 14 10.2385 14.0154 10.1308 13.9692L5.70769 11.9538C5.63077 11.9154 5.56923 11.8538 5.54615 11.7769L4.43846 8.60769C4.40769 8.51538 4.41538 8.41538 4.46923 8.33846C4.96923 7.58462 5.55385 6.87692 6.20769 6.22308C7.73846 4.69231 9.56923 3.56154 11.5615 2.89231C11.6538 2.86154 11.7538 2.87692 11.8308 2.93077L14.7846 4.93846C14.8692 4.97692 14.9231 5.06923 14.9231 5.17692ZM2.28462 16.6231L5.06154 14.2231C5.15385 14.1462 5.28462 14.1231 5.39231 14.1769L9.42308 16.0077C9.50769 16.0462 9.56923 16.1231 9.59231 16.2154L10.7154 20.6231C10.7308 20.7 10.7231 20.7769 10.6923 20.8462L8.90769 24.2231C8.85385 24.3231 8.74615 24.3923 8.63077 24.3846L5.09231 24.3385C5 24.3385 4.90769 24.2923 4.84615 24.2154C3.26923 22.0846 2.34615 19.5538 2.17692 16.8769C2.17692 16.7769 2.21538 16.6846 2.28462 16.6231ZM23.0846 24.2154L21.3077 20.8462C21.2692 20.7769 21.2615 20.7 21.2846 20.6231L22.4077 16.2154C22.4308 16.1231 22.4923 16.0462 22.5769 16.0077L26.6077 14.1769C26.7154 14.1308 26.8462 14.1462 26.9385 14.2231L29.7154 16.6231C29.7846 16.6846 29.8308 16.7769 29.8231 16.8769C29.6615 19.5538 28.7308 22.0769 27.1538 24.2154C27.1 24.2923 27.0077 24.3385 26.9077 24.3385L23.3615 24.3846C23.2462 24.3769 23.1385 24.3154 23.0846 24.2154Z" fill="black" fill-opacity="0.2"/>
</svg>
