<svg width="17" height="8" viewBox="0 0 17 8" fill="none" xmlns="http://www.w3.org/2000/svg">
<path d="M17 0.552861C17.0005 0.62856 16.9848 0.7036 16.954 0.773679C16.9232 0.843759 16.8778 0.907497 16.8205 0.961243L9.81276 7.49535C9.46454 7.8185 8.99251 8 8.50036 8C8.00821 8 7.53619 7.8185 7.18797 7.49535L0.180261 0.990003C0.0636907 0.880167 -0.00114563 0.731805 1.53264e-05 0.577553C0.00117628 0.423302 0.0682394 0.275796 0.186452 0.167487C0.304664 0.0591769 0.464342 -0.0010643 0.630358 1.38283e-05C0.796375 0.00109243 0.95513 0.0634036 1.0717 0.173239L8.06083 6.68434C8.11838 6.73825 8.18685 6.78104 8.26229 6.81025C8.33773 6.83945 8.41864 6.85448 8.50036 6.85448C8.58209 6.85448 8.663 6.83945 8.73844 6.81025C8.81387 6.78104 8.88234 6.73825 8.93989 6.68434L15.929 0.173239C15.9866 0.119327 16.055 0.0765367 16.1305 0.0473356C16.2059 0.0181341 16.2868 0.00309896 16.3686 0.00309896C16.4503 0.00309896 16.5312 0.0181341 16.6066 0.0473356C16.6821 0.0765367 16.7505 0.119327 16.8081 0.173239C16.9212 0.272827 16.9897 0.408389 17 0.552861Z" fill="#1B1B1B"/>
</svg>
