<svg width="24" height="24" viewBox="0 0 24 24" fill="none" xmlns="http://www.w3.org/2000/svg">
<rect width="24" height="24" rx="12" fill="black"/>
<path d="M13 7L16 10" stroke="white" stroke-linecap="round" stroke-linejoin="round"/>
<path d="M5 18H8.39239L17.2974 9.09498C17.5202 8.87223 17.6969 8.60779 17.8174 8.31676C17.938 8.02572 18 7.71379 18 7.39878C18 7.08377 17.938 6.77184 17.8174 6.48081C17.6969 6.18977 17.5202 5.92533 17.2974 5.70259C17.0747 5.47984 16.8102 5.30315 16.5192 5.1826C16.2282 5.06205 15.9162 5 15.6012 5C15.2862 5 14.9743 5.06205 14.6832 5.1826C14.3922 5.30315 14.1278 5.47984 13.905 5.70259L5 14.6076V18Z" stroke="white" stroke-linecap="round" stroke-linejoin="round"/>
</svg>
