<svg width="34" height="34" viewBox="0 0 34 34" fill="none" xmlns="http://www.w3.org/2000/svg">
<rect width="34" height="34" rx="17" fill="black"/>
<path d="M7 26.0439H13C13.2652 26.0439 13.5196 25.9385 13.7071 25.751C13.8946 25.5634 14 25.3091 14 25.0439C14 24.7786 13.8946 24.5243 13.7071 24.3368C13.5196 24.1492 13.2652 24.0439 13 24.0439H8.071C8.31366 22.3787 9.14714 20.8563 10.4192 19.7548C11.6914 18.6532 13.3172 18.046 15 18.0439C16.1775 18.0541 17.3214 17.652 18.2336 16.9073C19.1457 16.1627 19.7686 15.1223 19.9943 13.9667C20.2199 12.811 20.0341 11.6127 19.4691 10.5796C18.904 9.54655 17.9953 8.7437 16.9005 8.31024C15.8057 7.87678 14.5937 7.84002 13.4746 8.20634C12.3555 8.57266 11.3998 9.31897 10.7732 10.3159C10.1466 11.3129 9.88855 12.4976 10.0438 13.6649C10.199 14.8321 10.7576 15.9083 11.623 16.7069C9.96321 17.3802 8.54177 18.5329 7.54021 20.0179C6.53864 21.5029 6.00242 23.2527 6 25.0439C6 25.3091 6.10536 25.5634 6.29289 25.751C6.48043 25.9385 6.73478 26.0439 7 26.0439ZM15 10.0439C15.5933 10.0439 16.1734 10.2198 16.6667 10.5495C17.1601 10.8791 17.5446 11.3476 17.7716 11.8958C17.9987 12.444 18.0581 13.0472 17.9424 13.6291C17.8266 14.2111 17.5409 14.7456 17.1213 15.1652C16.7018 15.5847 16.1672 15.8705 15.5853 15.9862C15.0033 16.102 14.4001 16.0426 13.8519 15.8155C13.3038 15.5884 12.8352 15.2039 12.5056 14.7106C12.1759 14.2172 12 13.6372 12 13.0439C12 12.2482 12.3161 11.4852 12.8787 10.9225C13.4413 10.3599 14.2044 10.0439 15 10.0439ZM25.207 14.3369C25.0195 14.1494 24.7652 14.0441 24.5 14.0441C24.2348 14.0441 23.9805 14.1494 23.793 14.3369L17.543 20.5869C17.4337 20.697 17.3513 20.8308 17.302 20.9779L16.052 24.7279C16.002 24.8781 15.9883 25.0381 16.0122 25.1947C16.0361 25.3512 16.0968 25.4999 16.1894 25.6284C16.2819 25.7569 16.4037 25.8615 16.5446 25.9338C16.6856 26.006 16.8416 26.0437 17 26.0439C17.1074 26.0437 17.214 26.0265 17.316 25.9929L21.066 24.7429C21.2134 24.6937 21.3472 24.6108 21.457 24.5009L27.707 18.2509C27.8945 18.0633 27.9998 17.809 27.9998 17.5439C27.9998 17.2787 27.8945 17.0244 27.707 16.8369L25.207 14.3369ZM20.207 22.9199L18.578 23.4629L19.121 21.8339L24.5 16.4579L25.586 17.5439L20.207 22.9199Z" fill="#FFFCFC"/>
</svg>
