<svg width="34" height="34" viewBox="0 0 34 34" fill="none" xmlns="http://www.w3.org/2000/svg">
<path d="M28.9736 11.0896C28.8342 11.1769 25.5158 13.0186 25.5158 17.102C25.6722 21.7588 29.7034 23.392 29.7726 23.392C29.7034 23.4792 29.164 25.6167 27.566 27.8573C26.2978 29.7874 24.8902 31.7333 22.7527 31.7333C20.7195 31.7333 19.9896 30.447 17.6436 30.447C15.1242 30.447 14.4114 31.7333 12.4824 31.7333C10.345 31.7333 8.8331 29.6831 7.49576 27.7712C5.75836 25.2688 4.28163 21.3418 4.2295 17.5712C4.19436 15.5731 4.57743 13.609 5.54983 11.9408C6.9223 9.61178 9.37256 8.03078 12.0484 7.97864C14.0986 7.90951 15.9232 9.38624 17.1744 9.38624C18.3735 9.38624 20.6152 7.97864 23.1516 7.97864C24.2464 7.97978 27.1659 8.30958 28.9736 11.0896ZM17.001 7.57971C16.6361 5.75504 17.6436 3.93038 18.582 2.76644C19.7811 1.35884 21.6749 0.403442 23.308 0.403442C23.4123 2.22811 22.7516 4.01764 21.5706 5.32098C20.511 6.72858 18.6863 7.78824 17.001 7.57971Z" fill="black"/>
</svg>
