<svg width="34" height="34" viewBox="0 0 34 34" fill="none" xmlns="http://www.w3.org/2000/svg">
<path d="M17.0001 3.54163C13.4307 3.54163 10.0075 4.95955 7.4836 7.48348C4.95968 10.0074 3.54175 13.4306 3.54175 17C3.54175 20.5693 4.95968 23.9925 7.4836 26.5164C10.0075 29.0404 13.4307 30.4583 17.0001 30.4583C20.5695 30.4583 23.9926 29.0404 26.5166 26.5164C29.0405 23.9925 30.4584 20.5693 30.4584 17C30.4584 13.4306 29.0405 10.0074 26.5166 7.48348C23.9926 4.95955 20.5695 3.54163 17.0001 3.54163Z" fill="#039BE5"/>
<path d="M18.8218 20.5672H22.3046L22.8515 17.0291H18.8211V15.0953C18.8211 13.6255 19.3013 12.3222 20.6762 12.3222H22.8855V9.23455C22.4973 9.18213 21.6764 9.06738 20.1251 9.06738C16.8859 9.06738 14.9869 10.778 14.9869 14.6753V17.0291H11.657V20.5672H14.9869V30.2919C15.6463 30.3911 16.3143 30.4583 16.9999 30.4583C17.6197 30.4583 18.2246 30.4017 18.8218 30.3209V20.5672Z" fill="white"/>
</svg>
