<svg width="34" height="34" viewBox="0 0 34 34" fill="none" xmlns="http://www.w3.org/2000/svg">
<rect width="34" height="34" rx="17" fill="black"/>
<path d="M18.4829 25.5863C18.0854 25.9585 17.554 26.1666 17.001 26.1666C16.448 26.1666 15.9167 25.9585 15.5191 25.5863C11.8786 22.1571 6.99986 18.3262 9.37908 12.7646C10.6655 9.75748 13.7535 7.83325 17.001 7.83325C20.2486 7.83325 23.3366 9.75748 24.623 12.7646C26.9992 18.3193 22.1324 22.1689 18.4829 25.5863Z" stroke="white" stroke-width="1.5"/>
<path d="M20.2084 16.0833C20.2084 17.8553 18.772 19.2917 17.0001 19.2917C15.2282 19.2917 13.7917 17.8553 13.7917 16.0833C13.7917 14.3114 15.2282 12.875 17.0001 12.875C18.772 12.875 20.2084 14.3114 20.2084 16.0833Z" stroke="white" stroke-width="1.5"/>
</svg>
