<svg width="124" height="85" viewBox="0 0 124 85" fill="none" xmlns="http://www.w3.org/2000/svg">
<path d="M0.184115 0.159C0.0789063 0.237907 0 13.5468 0 29.7225V59.1283L5.33932 59.2072C8.25886 59.2598 11.2573 59.2335 11.9675 59.1546L13.2826 59.0231L13.3615 36.0087C13.4141 18.8598 13.3615 12.7051 13.1247 11.8108C11.9412 7.33947 7.99584 3.23634 2.525 0.763947C0.710157 -0.0777206 0.447136 -0.130322 0.184115 0.159Z" fill="black"/>
<path d="M25.697 20.2801C23.7506 22.4895 20.6733 26.014 18.8321 28.1181L15.5181 31.9056V41.0588V50.2119L16.5175 49.0809C17.0962 48.4759 18.4113 46.9767 19.4371 45.7405C20.4892 44.5043 21.6202 43.2155 21.9095 42.8473C22.2251 42.4791 23.9084 40.5327 25.6444 38.5075C27.3803 36.4822 29.3267 34.2202 29.9842 33.4838C30.6418 32.7736 33.4561 29.5384 36.2704 26.3296C39.0847 23.1207 41.4256 20.5431 41.4782 20.5957C41.5308 20.6483 41.5834 25.1723 41.5571 30.6431C41.5571 42.6106 41.7675 44.4517 43.7139 48.6075C45.5287 52.5791 49.8423 56.6559 53.6035 57.971C54.2873 58.234 55.0764 58.5233 55.3657 58.6285C55.6551 58.7601 56.8649 58.9968 58.0748 59.1809C59.2584 59.365 60.2316 59.5754 60.2316 59.6543C60.2316 59.7069 60.0738 59.97 59.8634 60.1804C59.1532 60.9957 52.341 71.3062 52.341 71.5429C52.341 71.7007 53.9191 73.4103 55.8392 75.3567L59.311 78.9075L61.7308 75.2778C63.0459 73.2788 67.228 67.0189 71.0155 61.3903C77.8014 51.2903 78.8535 49.6069 79.6163 47.4765C80.7999 44.1624 80.7999 44.1887 80.9314 32.5106C81.0103 26.1981 81.1681 21.2796 81.2733 21.3322C81.4048 21.3848 82.3254 22.5421 83.2985 23.9361C84.2717 25.3301 86.4022 28.3022 87.9803 30.5379C89.8741 33.247 90.9788 34.5621 91.1629 34.4043C91.3207 34.2728 92.215 33.0103 93.1881 31.6163C96.7126 26.4085 97.6595 25.0934 98.1329 24.541C98.6327 23.9887 98.6327 23.9887 97.0019 21.6478C96.0814 20.359 94.8715 18.6231 94.3191 17.7814L93.2933 16.2822H80.5631H67.8592V28.9072C67.8592 41.1903 67.8329 41.5585 67.3069 42.7158C65.9129 45.6879 62.8355 47.0819 59.4163 46.2666C58.3116 46.0035 57.7329 45.6353 56.6545 44.5832C54.7608 42.6632 54.7082 42.295 54.7082 28.0392V16.2822H41.978H29.2478L25.697 20.2801Z" fill="black"/>
<path d="M104.34 20.438C98.5539 28.8284 86.4813 46.1614 81.3787 53.3682C79.1693 56.4719 77.407 59.1021 77.4859 59.181C77.6438 59.444 91.8206 59.3914 92.5044 59.1284C93.0042 58.9442 94.819 56.4719 100.264 48.5023C101.237 47.0557 102.867 44.6885 103.867 43.2419C104.893 41.7953 106.471 39.4807 107.418 38.113C108.365 36.7453 110.337 33.8784 111.836 31.7479C113.336 29.6174 115.203 26.9083 115.992 25.751C116.781 24.5674 118.544 22.0424 119.885 20.0961C121.2 18.176 122.305 16.519 122.305 16.4401C122.305 16.3612 118.912 16.2823 114.756 16.2823H107.181L104.34 20.438Z" fill="black"/>
<path d="M29.4848 36.9294C28.5905 38.0078 27.6962 39.0336 27.5384 39.2177C27.3543 39.4018 26.2233 40.7169 25.0134 42.1373L22.8303 44.7149L23.4879 45.688C24.6978 47.5292 32.0361 57.9711 32.5095 58.5761C33.0092 59.181 33.0881 59.181 39.1902 59.181C47.2387 59.2073 48.1329 59.181 48.1329 58.9443C48.1329 58.8391 47.2387 57.524 46.1603 55.9985C45.0819 54.4729 43.7668 52.6318 43.267 51.9216C42.741 51.1852 41.4785 49.4229 40.4527 47.9763C39.4269 46.5297 37.5069 43.7417 36.1655 41.7953C32.4043 36.2456 31.4837 34.9568 31.2733 34.9568C31.1944 34.9568 30.379 35.8511 29.4848 36.9294Z" fill="black"/>
<path d="M108.575 41.1904C107.628 42.5055 104.288 47.2398 103.63 48.213C103.42 48.5023 102.92 49.2125 102.499 49.7385L101.763 50.7117L104.577 54.8674C106.129 57.1557 107.549 59.1021 107.681 59.2073C108.075 59.4703 122.778 59.4703 122.936 59.2073C122.989 59.1021 121.91 57.3924 120.516 55.4198C119.122 53.4471 117.255 50.8169 116.387 49.5807C113.546 45.5039 109.917 40.3487 109.706 40.1383C109.575 40.0068 109.075 40.4802 108.575 41.1904Z" fill="black"/>
<path d="M107.944 61.2325C103.972 62.6791 101.158 65.7302 100.211 69.6492C99.7902 71.3851 99.9744 74.6203 100.606 76.3825C102.236 81.0117 106.708 84.1416 111.784 84.1416C115.23 84.1416 118.018 82.9317 120.332 80.4067C122.094 78.513 123.041 76.5666 123.41 74.1468C123.909 70.7539 122.936 67.3083 120.727 64.6255C119.675 63.363 117.386 61.8638 115.545 61.2588C113.494 60.575 109.811 60.575 107.944 61.2325Z" fill="black"/>
</svg>
