<svg width="9" height="18" viewBox="0 0 9 18" fill="none" xmlns="http://www.w3.org/2000/svg">
<path d="M1.05286 0.50001C1.12856 0.49954 1.2036 0.515156 1.27368 0.545961C1.34376 0.576769 1.4075 0.622162 1.46124 0.679535L7.99535 7.68724C8.3185 8.03546 8.5 8.50749 8.5 8.99964C8.5 9.49179 8.3185 9.96381 7.99535 10.312L1.49 17.3197C1.38017 17.4363 1.2318 17.5011 1.07755 17.5C0.923302 17.4988 0.775796 17.4318 0.667487 17.3135C0.559177 17.1953 0.498936 17.0357 0.500014 16.8696C0.501092 16.7036 0.563404 16.5449 0.673239 16.4283L7.18434 9.43917C7.23825 9.38162 7.28104 9.31315 7.31025 9.23771C7.33945 9.16227 7.35448 9.08136 7.35448 8.99964C7.35448 8.91791 7.33945 8.837 7.31025 8.76156C7.28104 8.68613 7.23825 8.61766 7.18434 8.56011L0.673239 1.57098C0.619327 1.51343 0.576537 1.44496 0.547336 1.36952C0.518134 1.29408 0.503099 1.21317 0.503099 1.13145C0.503099 1.04972 0.518134 0.968811 0.547336 0.893373C0.576537 0.817936 0.619327 0.749466 0.673239 0.691917C0.772827 0.578804 0.908389 0.510275 1.05286 0.50001Z" fill="black" stroke="black"/>
</svg>
