<svg width="343" height="318" viewBox="0 0 343 318" fill="none" xmlns="http://www.w3.org/2000/svg">
<path d="M0 0H343V158C343 246.366 271.366 318 183 318H160C71.6345 318 0 246.366 0 158V0Z" fill="black" fill-opacity="0.41"/>
<path d="M197.968 70.0364C192.809 70.5262 172.776 75.763 171.609 76.9309C170.554 77.9481 170.743 80.0579 172.174 84.2398C173.944 89.4389 174.169 93.2817 173.906 114.003C173.642 133.631 173.718 134.385 175.638 139.998C176.768 143.238 176.843 143.728 176.994 150.623C177.107 155.633 176.956 159.853 176.542 164.374C176.203 167.953 175.902 171.984 175.826 173.303C175.751 175.639 175.713 175.789 174.471 176.505C172.4 177.711 166.488 177.824 162.232 176.731C159.258 175.978 158.429 175.902 154.701 176.166C152.404 176.317 147.283 176.505 143.291 176.543C134.856 176.656 134.329 176.731 130.262 178.427C128.605 179.143 126.61 179.858 125.856 179.971C124.011 180.31 120.246 182.157 113.242 186.188C109.928 188.071 106.087 190.106 104.731 190.633C103.376 191.198 100.326 192.856 97.9532 194.363C89.2546 199.788 85.7149 200.768 79.7276 199.412C77.8824 198.997 74.9829 198.055 73.326 197.302C69.6357 195.644 67.8658 195.531 66.7738 196.925C65.6441 198.357 65.7571 200.278 67.0751 202.576C68.3177 204.724 71.1419 207.399 73.3637 208.567C74.3051 209.056 75.4348 210.262 76.5268 211.769C78.8615 215.197 82.2129 218.437 83.9827 218.965C86.6563 219.756 88.7651 217.91 90.2713 213.464C90.9491 211.543 91.288 211.091 92.5683 210.375C93.9993 209.584 108.384 204.309 114.936 202.162C118.589 200.956 120.585 199.939 129.246 194.665C134.141 191.688 135.722 190.897 136.777 190.897C137.605 190.935 139.94 191.877 142.99 193.421C145.701 194.778 149.768 196.511 152.028 197.264C158.843 199.562 167.956 203.593 168.596 204.611C169.538 206.118 185.278 212.409 191.19 213.653C193.901 214.218 195.144 214.821 199.926 217.948C205.801 221.79 207.608 222.544 215.742 224.541C219.846 225.558 223.838 226.5 224.629 226.65C226.7 226.989 226.436 227.894 223.461 231.058C222.068 232.565 220.336 234.524 219.658 235.391L218.416 237.011H212.729C205.123 237.011 201.169 236.069 193.261 232.49C187.65 229.928 187.801 229.928 186.973 231.623C186.37 232.867 185.918 233.206 183.471 234.11C180.307 235.316 179.102 236.257 178.349 238.028C177.144 240.891 177.671 241.231 184.751 242.323C187.462 242.7 191.454 243.566 193.638 244.207C202.638 246.769 213.219 248.313 218.265 247.786C221.39 247.447 223.574 246.317 232.612 240.59C236.152 238.33 240.783 235.429 242.967 234.072C245.151 232.754 249.294 230.003 252.193 227.969C255.093 225.972 258.331 223.825 259.348 223.26C262.134 221.753 263.942 219.831 265.411 216.817L266.691 214.105L270.419 212.937C275.841 211.204 277.95 209.207 278.741 204.987C279.833 199.223 274.938 190.935 269.515 189.352C267.67 188.787 267.03 188.787 265.072 189.164C262.134 189.729 259.16 191.236 256.109 193.685C252.833 196.322 251.666 196.624 248.804 195.569C243.118 193.459 237.771 192.178 234.645 192.178C233.327 192.178 233.252 192.103 232.8 190.37C231.934 186.904 229.599 182.646 226.248 178.464C219.959 170.59 218.754 167.463 218.114 157.027C217.926 153.938 217.587 150.773 217.361 150.02C216.457 146.705 213.596 144.218 210.809 144.406C209.077 144.519 208.248 145.461 209.001 146.479C209.868 147.759 209.905 148.061 209.039 149.191C208.06 150.547 208.211 151.904 209.642 154.051C210.96 156.048 211.562 159.363 212.278 168.405C213.144 179.369 214.198 184.229 216.42 187.13C217.625 188.712 217.135 188.787 214.236 187.506C211.901 186.489 209.303 184.304 208.437 182.609C208.098 181.968 207.458 179.934 207.006 178.05C206.479 175.978 205.311 172.964 204.031 170.402C201.621 165.617 199.361 160.004 195.144 148.664C189.533 133.443 189.797 134.423 189.458 127.001C188.629 110.009 188.554 109.294 186.483 101.193C184.224 92.5282 184.224 91.7371 186.219 87.7059C188.554 82.9965 191.454 80.3593 196.048 78.7769C198.947 77.7974 200.717 76.6672 201.583 75.2355C203.391 72.2592 201.583 69.6597 197.968 70.0364Z" fill="black"/>
<path d="M239.527 70.4041C233.54 72.3632 230 77.1479 230 83.2512C230 88.6387 232.598 92.8206 237.456 95.1941C239.678 96.3244 240.318 96.4374 243.18 96.4374C245.891 96.4374 246.719 96.2867 248.715 95.3448C254.213 92.8206 257.414 86.9057 256.359 81.1414C256.133 79.8228 255.531 78.0144 255.041 77.0349C253.949 74.8497 250.862 71.9488 248.565 70.9692C246.267 69.952 241.711 69.6883 239.527 70.4041Z" fill="black"/>
</svg>
